<svg fill="#000000" version="1.1" id="Capa_1" xmlns="http://www.w3.org/2000/svg" xmlns:xlink="http://www.w3.org/1999/xlink" width="125px"  viewBox="-3.19 -3.19 38.25 38.25" xml:space="preserve" transform="rotate(0)matrix(-1, 0, 0, 1, 0, 0)" stroke="#000000"><g id="SVGRepo_bgCarrier" stroke-width="0"></g><g id="SVGRepo_tracerCarrier" stroke-linecap="round" stroke-linejoin="round" stroke="#CCCCCC" stroke-width="0.701074"></g><g id="SVGRepo_iconCarrier"> <g> <g> <path d="M11.038,5.696C10.99,5.855,10.94,6.014,10.913,6.18c-0.033,0.208-0.052,0.421-0.052,0.638c0,2.14,1.733,3.873,3.872,3.873 c2.138,0,3.873-1.733,3.873-3.873c0-0.428-0.086-0.833-0.213-1.217l0.787-1.085l-1.41-0.495l0.275-1.44l-1.721,0.492l-0.792-1.658 l-1.47,1.533l-1.138-1.321L12.389,3.37l-1.827-0.599L11.25,4.31L9.92,4.684L11.038,5.696z"></path> <path d="M23.732,4.579l-0.418,0.563l1.234,0.912L23.4,7.609l-0.021-0.028l-4.811,3.692l-1.92-0.001c0,0-0.528,1.628-1.987,1.713 c-1.458,0.084-2.01-1.713-2.01-1.713h-0.847h-0.912L6.323,7.765l-0.52,0.676L4.646,7.364V7.352H0v8.912h2.811l-0.03-0.236 l-0.516-0.202H0.438V7.788h3.768L4.2,9.32h1.312l0.315,0.24v5.211l0.298-0.211l0.139,0.173V9.895l4.699,3.608l0.335,6.756H11.5 v0.879v0.652v6.893h-0.266c0,0-0.542,0.099-1.553,0.336c-1.01,0.238,0,1.434,0,1.434h4.591v-1.596v-0.174V21.79h0.976l0.744,2.963 l-0.744,3.93v0.174v1.596h4.589c0,0,1.006-1.215,0-1.434c-1.005-0.218-1.553-0.336-1.553-0.336h-0.269l0.73-3.865l-0.73-3.026 V21.14v-0.88h0.25l0.34-6.837l5.553-4.263l1.253,1.657l3.284,1.136l1.354-1.833l0.601,0.444l-0.961,1.301l-0.301-0.223 l-0.812,1.102l0.934,0.689l0.813-1.1l-0.2-0.148l0.961-1.3l0.367,0.272l0.416-0.564L23.732,4.579z M4.644,7.959L5.536,8.79 l-0.07,0.091H4.639L4.644,7.959z"></path> <rect x="1.161" y="12.937" width="3.021" height="0.353"></rect> <rect x="1.161" y="12.042" width="3.727" height="0.354"></rect> <rect x="1.161" y="13.971" width="1.863" height="0.352"></rect> <rect x="1.161" y="11.101" width="3.021" height="0.354"></rect> <rect x="1.161" y="9.337" width="2.231" height="1.215"></rect> <circle cx="4.636" cy="14.642" r="0.986"></circle> <polygon points="4.636,16.124 5.436,17.135 5.816,16.134 6.878,15.995 6.079,14.985 "></polygon> <polygon points="2.1,15.44 3.1,15.821 3.238,16.882 4.25,16.083 3.11,14.64 "></polygon> </g> </g> </g></svg>